<svg width="32" height="30" viewBox="0 0 32 30" fill="none" xmlns="http://www.w3.org/2000/svg">
<path d="M12.5625 13.5C12.5625 13.2514 12.6613 13.0129 12.8371 12.8371C13.0129 12.6613 13.2514 12.5625 13.5 12.5625H18.5C18.7486 12.5625 18.9871 12.6613 19.1629 12.8371C19.3387 13.0129 19.4375 13.2514 19.4375 13.5C19.4375 13.7486 19.3387 13.9871 19.1629 14.1629C18.9871 14.3387 18.7486 14.4375 18.5 14.4375H13.5C13.2514 14.4375 13.0129 14.3387 12.8371 14.1629C12.6613 13.9871 12.5625 13.7486 12.5625 13.5ZM31.9375 7.25V27.25C31.9375 27.8302 31.707 28.3866 31.2968 28.7968C30.8866 29.207 30.3302 29.4375 29.75 29.4375H2.25C1.66984 29.4375 1.11344 29.207 0.703204 28.7968C0.292968 28.3866 0.0625 27.8302 0.0625 27.25V7.25C0.0625 6.66984 0.292968 6.11344 0.703204 5.7032C1.11344 5.29297 1.66984 5.0625 2.25 5.0625H8.8125V3.5C8.8125 2.58832 9.17466 1.71398 9.81932 1.06932C10.464 0.424664 11.3383 0.0625 12.25 0.0625H19.75C20.6617 0.0625 21.536 0.424664 22.1807 1.06932C22.8253 1.71398 23.1875 2.58832 23.1875 3.5V5.0625H29.75C30.3302 5.0625 30.8866 5.29297 31.2968 5.7032C31.707 6.11344 31.9375 6.66984 31.9375 7.25ZM10.6875 5.0625H21.3125V3.5C21.3125 3.0856 21.1479 2.68817 20.8549 2.39515C20.5618 2.10212 20.1644 1.9375 19.75 1.9375H12.25C11.8356 1.9375 11.4382 2.10212 11.1451 2.39515C10.8521 2.68817 10.6875 3.0856 10.6875 3.5V5.0625ZM1.9375 7.25V13.9359C6.24257 16.3154 11.0811 17.5632 16 17.5625C20.9191 17.5633 25.7578 16.3149 30.0625 13.9344V7.25C30.0625 7.16712 30.0296 7.08763 29.971 7.02903C29.9124 6.97042 29.8329 6.9375 29.75 6.9375H2.25C2.16712 6.9375 2.08763 6.97042 2.02903 7.02903C1.97042 7.08763 1.9375 7.16712 1.9375 7.25ZM30.0625 27.25V16.0578C25.7076 18.2789 20.8886 19.4371 16 19.4375C11.1115 19.438 6.29237 18.2804 1.9375 16.0594V27.25C1.9375 27.3329 1.97042 27.4124 2.02903 27.471C2.08763 27.5296 2.16712 27.5625 2.25 27.5625H29.75C29.8329 27.5625 29.9124 27.5296 29.971 27.471C30.0296 27.4124 30.0625 27.3329 30.0625 27.25Z" fill="#475536"/>
</svg>
