<svg width="132" height="137" viewBox="0 0 132 137" fill="none" xmlns="http://www.w3.org/2000/svg">
<ellipse cx="65.705" cy="68.395" rx="65.705" ry="68.395" fill="#DDFFB1"/>
<path d="M97.6215 65.1891C97.6177 62.0742 96.7493 59.0268 95.1207 56.4136C93.4922 53.8004 91.173 51.7326 88.4421 50.4592V49.6619C88.4393 46.631 87.4734 43.6862 85.6951 41.2864C83.9167 38.8865 81.4258 37.1662 78.6103 36.3937C75.7948 35.6211 72.8128 35.8396 70.1291 37.0151C67.4453 38.1906 65.2104 40.2571 63.7726 42.8927C62.3347 40.2571 60.0998 38.1906 57.4161 37.0151C54.7323 35.8396 51.7504 35.6211 48.9349 36.3937C46.1194 37.1662 43.6284 38.8865 41.8501 41.2864C40.0717 43.6862 39.1059 46.631 39.103 49.6619V50.4592C36.37 51.7284 34.0487 53.7945 32.4197 56.4077C30.7907 59.0209 29.9238 62.0694 29.9238 65.1846C29.9238 68.2998 30.7907 71.3483 32.4197 73.9615C34.0487 76.5747 36.37 78.6409 39.103 79.91V80.7163C39.1059 83.7471 40.0717 86.6919 41.8501 89.0918C43.6284 91.4917 46.1194 93.2119 48.9349 93.9845C51.7504 94.7571 54.7323 94.5386 57.4161 93.3631C60.0998 92.1876 62.3347 90.1211 63.7726 87.4855C65.2104 90.1211 67.4453 92.1876 70.1291 93.3631C72.8128 94.5386 75.7948 94.7571 78.6103 93.9845C81.4258 93.2119 83.9167 91.4917 85.6951 89.0918C87.4734 86.6919 88.4393 83.7471 88.4421 80.7163V79.91C91.173 78.639 93.4925 76.5731 95.1212 73.9612C96.7498 71.3494 97.6182 68.3029 97.6215 65.1891ZM52.2984 90.8686C49.7635 90.8699 47.3278 89.8439 45.5072 88.0078C43.6866 86.1718 42.6243 83.6701 42.5453 81.0328C43.4909 81.2195 44.4513 81.3134 45.4138 81.3135H47.7087C48.1651 81.3135 48.6029 81.1247 48.9257 80.7887C49.2485 80.4527 49.4298 79.997 49.4298 79.5219C49.4298 79.0467 49.2485 78.591 48.9257 78.255C48.6029 77.919 48.1651 77.7303 47.7087 77.7303H45.4138C42.57 77.7327 39.8171 76.6879 37.6421 74.7807C35.4672 72.8736 34.0104 70.2271 33.5296 67.3095C33.0488 64.3919 33.5749 61.3913 35.0149 58.8387C36.4549 56.286 38.7159 54.3459 41.3978 53.3616C41.7336 53.238 42.0242 53.0091 42.2297 52.7064C42.4352 52.4037 42.5455 52.0421 42.5453 51.6715V49.6619C42.5453 46.9693 43.5728 44.387 45.4019 42.4831C47.2309 40.5791 49.7117 39.5095 52.2984 39.5095C54.885 39.5095 57.3658 40.5791 59.1948 42.4831C61.0239 44.387 62.0514 46.9693 62.0514 49.6619V71.4746C60.817 70.0586 59.3114 68.9273 57.6317 68.1534C55.952 67.3794 54.1353 66.9799 52.2984 66.9807C51.8419 66.9807 51.4041 67.1694 51.0813 67.5054C50.7586 67.8414 50.5772 68.2971 50.5772 68.7723C50.5772 69.2474 50.7586 69.7031 51.0813 70.0391C51.4041 70.3751 51.8419 70.5639 52.2984 70.5639C54.885 70.5639 57.3658 71.6335 59.1948 73.5374C61.0239 75.4414 62.0514 78.0237 62.0514 80.7163C62.0514 83.4088 61.0239 85.9911 59.1948 87.8951C57.3658 89.799 54.885 90.8686 52.2984 90.8686ZM82.1313 77.7303H79.8365C79.38 77.7303 78.9422 77.919 78.6195 78.255C78.2967 78.591 78.1153 79.0467 78.1153 79.5219C78.1153 79.997 78.2967 80.4527 78.6195 80.7887C78.9422 81.1247 79.38 81.3135 79.8365 81.3135H82.1313C83.0938 81.3134 84.0542 81.2195 84.9999 81.0328C84.9402 83.0261 84.3178 84.9569 83.2104 86.5843C82.1031 88.2117 80.5598 89.4636 78.7733 90.1837C76.9867 90.9038 75.0359 91.0602 73.1645 90.6335C71.293 90.2067 69.5838 89.2157 68.25 87.7841C66.9163 86.3524 66.0171 84.5436 65.6648 82.5834C65.3125 80.6231 65.5226 78.5983 66.2688 76.7615C67.0151 74.9248 68.2646 73.3575 69.8612 72.2553C71.4578 71.1531 73.331 70.5648 75.2468 70.5639C75.7033 70.5639 76.141 70.3751 76.4638 70.0391C76.7866 69.7031 76.9679 69.2474 76.9679 68.7723C76.9679 68.2971 76.7866 67.8414 76.4638 67.5054C76.141 67.1694 75.7033 66.9807 75.2468 66.9807C73.4099 66.9799 71.5931 67.3794 69.9134 68.1534C68.2337 68.9273 66.7282 70.0586 65.4937 71.4746V49.6619C65.4937 46.9693 66.5213 44.387 68.3503 42.4831C70.1794 40.5791 72.6601 39.5095 75.2468 39.5095C77.8335 39.5095 80.3142 40.5791 82.1433 42.4831C83.9723 44.387 84.9999 46.9693 84.9999 49.6619V51.6715C84.9997 52.0421 85.11 52.4037 85.3155 52.7064C85.521 53.0091 85.8116 53.238 86.1473 53.3616C88.8293 54.3459 91.0903 56.286 92.5303 58.8387C93.9703 61.3913 94.4964 64.3919 94.0156 67.3095C93.5348 70.2271 92.078 72.8736 89.903 74.7807C87.728 76.6879 84.9751 77.7327 82.1313 77.7303ZM86.1473 61.6059C86.1473 62.081 85.966 62.5367 85.6432 62.8727C85.3204 63.2087 84.8826 63.3975 84.4262 63.3975H83.2787C80.6921 63.3975 78.2113 62.3279 76.3823 60.4239C74.5532 58.52 73.5257 55.9377 73.5257 53.2451V52.0507C73.5257 51.5755 73.707 51.1198 74.0298 50.7839C74.3525 50.4479 74.7903 50.2591 75.2468 50.2591C75.7033 50.2591 76.141 50.4479 76.4638 50.7839C76.7866 51.1198 76.9679 51.5755 76.9679 52.0507V53.2451C76.9679 54.9874 77.6328 56.6583 78.8163 57.8902C79.9998 59.1222 81.605 59.8143 83.2787 59.8143H84.4262C84.8826 59.8143 85.3204 60.003 85.6432 60.339C85.966 60.675 86.1473 61.1307 86.1473 61.6059ZM44.2664 63.3975H43.119C42.6625 63.3975 42.2247 63.2087 41.902 62.8727C41.5792 62.5367 41.3978 62.081 41.3978 61.6059C41.3978 61.1307 41.5792 60.675 41.902 60.339C42.2247 60.003 42.6625 59.8143 43.119 59.8143H44.2664C45.9401 59.8143 47.5453 59.1222 48.7288 57.8902C49.9123 56.6583 50.5772 54.9874 50.5772 53.2451V52.0507C50.5772 51.5755 50.7586 51.1198 51.0813 50.7839C51.4041 50.4479 51.8419 50.2591 52.2984 50.2591C52.7548 50.2591 53.1926 50.4479 53.5154 50.7839C53.8382 51.1198 54.0195 51.5755 54.0195 52.0507V53.2451C54.0195 55.9377 52.9919 58.52 51.1629 60.4239C49.3338 62.3279 46.8531 63.3975 44.2664 63.3975Z" fill="#343330"/>
</svg>
