<svg width="90" height="90" viewBox="0 0 90 90" fill="none" xmlns="http://www.w3.org/2000/svg">
<circle cx="45" cy="45" r="44.5" fill="#D9D9D9" stroke="black"/>
<path d="M51.302 42.3782C51.4736 43.303 51.5975 44.2278 51.5975 45.429C51.5975 55.8877 44.5806 63.3051 34.017 63.3051C23.9015 63.3051 15.7119 55.1155 15.7119 45C15.7119 34.8845 23.9015 26.6949 34.017 26.6949C38.9651 26.6949 43.0837 28.4968 46.2776 31.4905L41.3104 36.2574C39.9662 34.9608 37.5922 33.4354 34.017 33.4354C27.7723 33.4354 22.6812 38.6028 22.6812 45C22.6812 51.3973 27.7723 56.5646 34.017 56.5646C41.2628 56.5646 43.9799 51.3496 44.4089 48.6706H34.017V42.3782H51.302ZM68.9778 42.9884V37.678H63.6388V42.9884H58.3284V48.3273H63.6388V53.6377H68.9778V48.3273H74.2882V42.9884H68.9778Z" fill="#2B3320"/>
</svg>
