<svg width="40" height="41" viewBox="0 0 40 41" fill="none" xmlns="http://www.w3.org/2000/svg">
<path d="M35.8 22.7892C35.372 22.4596 34.8736 22.2333 34.3437 22.1281C33.8138 22.023 33.2668 22.0417 32.7453 22.183L32.0703 22.3392C35.4688 19.1798 37.1875 16.0486 37.1875 13.0001C37.1875 9.03764 34.0016 5.81264 30.0844 5.81264C28.9796 5.80572 27.8885 6.05629 26.8975 6.54448C25.9064 7.03267 25.0428 7.74506 24.375 8.62514C23.7072 7.74506 22.8436 7.03267 21.8525 6.54448C20.8615 6.05629 19.7704 5.80572 18.6656 5.81264C14.7484 5.81264 11.5625 9.03764 11.5625 13.0001C11.5625 14.7783 12.1297 16.5142 13.3266 18.3689C12.3455 18.5202 11.4387 18.9818 10.7391 19.6861L7.1125 23.3126H2.5C1.91984 23.3126 1.36344 23.5431 0.953204 23.9533C0.542968 24.3636 0.3125 24.92 0.3125 25.5001V31.7501C0.3125 32.3303 0.542968 32.8867 0.953204 33.2969C1.36344 33.7072 1.91984 33.9376 2.5 33.9376H18.75C18.8269 33.9377 18.9035 33.9282 18.9781 33.9095L28.9781 31.4095C29.0255 31.3969 29.0719 31.3813 29.1172 31.3626L35.1828 28.7814L35.2344 28.758C35.7707 28.4901 36.23 28.0902 36.569 27.5958C36.908 27.1014 37.1156 26.5288 37.1722 25.9321C37.2288 25.3353 37.1325 24.7339 36.8924 24.1846C36.6524 23.6353 36.2764 23.1562 35.8 22.7923V22.7892ZM18.6656 7.68764C19.6967 7.67388 20.7084 7.96808 21.5712 8.53257C22.4341 9.09706 23.109 9.90618 23.5094 10.8564C23.58 11.0283 23.7002 11.1754 23.8546 11.2789C24.009 11.3824 24.1907 11.4377 24.3766 11.4377C24.5625 11.4377 24.7441 11.3824 24.8986 11.2789C25.053 11.1754 25.1731 11.0283 25.2437 10.8564C25.6442 9.90618 26.319 9.09706 27.1819 8.53257C28.0448 7.96808 29.0565 7.67388 30.0875 7.68764C32.9188 7.68764 35.3125 10.1205 35.3125 13.0001C35.3125 16.1626 32.7844 19.7189 28 23.2736L25.6766 23.8079C25.9083 23.1932 25.9874 22.5313 25.9072 21.8792C25.827 21.2271 25.5899 20.6042 25.2161 20.0639C24.8423 19.5236 24.3431 19.082 23.7611 18.777C23.1792 18.4719 22.532 18.3126 21.875 18.3126H15.5734C14.1187 16.3861 13.4375 14.6892 13.4375 13.0001C13.4375 10.1205 15.8313 7.68764 18.6656 7.68764ZM2.1875 31.7501V25.5001C2.1875 25.4173 2.22042 25.3378 2.27903 25.2792C2.33763 25.2206 2.41712 25.1876 2.5 25.1876H6.5625V32.0626H2.5C2.41712 32.0626 2.33763 32.0297 2.27903 31.9711C2.22042 31.9125 2.1875 31.833 2.1875 31.7501ZM34.4188 27.0626L28.45 29.6048L18.6344 32.0626H8.4375V24.6392L12.0641 21.0111C12.3247 20.7491 12.6347 20.5414 12.9761 20.4001C13.3175 20.2587 13.6836 20.1865 14.0531 20.1876H21.875C22.4552 20.1876 23.0116 20.4181 23.4218 20.8283C23.832 21.2386 24.0625 21.795 24.0625 22.3751C24.0625 22.9553 23.832 23.5117 23.4218 23.9219C23.0116 24.3322 22.4552 24.5626 21.875 24.5626H17.5C17.2514 24.5626 17.0129 24.6614 16.8371 24.8372C16.6613 25.013 16.5625 25.2515 16.5625 25.5001C16.5625 25.7488 16.6613 25.9872 16.8371 26.1631C17.0129 26.3389 17.2514 26.4376 17.5 26.4376H22.5C22.5704 26.4377 22.6407 26.4299 22.7094 26.4142L33.1781 24.0064L33.2156 23.997C33.6096 23.8896 34.0295 23.9315 34.3944 24.1148C34.7594 24.298 35.0438 24.6097 35.193 24.9899C35.3422 25.37 35.3457 25.7919 35.2028 26.1745C35.0599 26.5571 34.7807 26.8734 34.4188 27.0626Z" fill="#343330"/>
</svg>
