<svg width="132" height="137" viewBox="0 0 132 137" fill="none" xmlns="http://www.w3.org/2000/svg">
<ellipse cx="65.705" cy="68.395" rx="65.705" ry="68.395" fill="#DDFFB1"/>
<path d="M88.442 51.7522V52.0508C88.442 55.0601 87.2936 57.9462 85.2493 60.0741C83.2051 62.2021 80.4325 63.3975 77.5415 63.3975H65.4936V88.4799H68.3621C69.4081 88.4801 70.4294 88.1497 71.291 87.5324C72.1525 86.915 72.8137 86.0399 73.1869 85.0228C73.56 84.0056 73.6277 82.8945 73.3808 81.8365C73.1339 80.7785 72.5842 79.8235 71.8044 79.0979C71.63 78.9428 71.4871 78.753 71.3842 78.5397C71.2813 78.3263 71.2203 78.0937 71.205 77.8555C71.1897 77.6173 71.2202 77.3783 71.2949 77.1525C71.3695 76.9268 71.4867 76.7188 71.6397 76.5409C71.7926 76.363 71.9782 76.2187 72.1855 76.1165C72.3928 76.0143 72.6176 75.9563 72.8467 75.9458C73.0759 75.9353 73.3047 75.9726 73.5198 76.0555C73.7349 76.1384 73.9319 76.2652 74.0992 76.4284C75.3982 77.6379 76.3138 79.2295 76.7248 80.9925C77.1359 82.7554 77.023 84.6068 76.4011 86.3016C75.7792 87.9963 74.6776 89.4545 73.2422 90.4834C71.8067 91.5122 70.1049 92.063 68.3621 92.0631H65.4936V97.4379C65.4936 97.913 65.3122 98.3687 64.9895 98.7047C64.6667 99.0407 64.2289 99.2295 63.7724 99.2295C63.316 99.2295 62.8782 99.0407 62.5554 98.7047C62.2326 98.3687 62.0513 97.913 62.0513 97.4379V92.0631H54.5931C54.1366 92.0631 53.6988 91.8743 53.376 91.5383C53.0533 91.2024 52.8719 90.7467 52.8719 90.2715C52.8719 89.7963 53.0533 89.3406 53.376 89.0046C53.6988 88.6687 54.1366 88.4799 54.5931 88.4799H62.0513V63.3975H54.5931C53.2236 63.3975 51.9103 63.9638 50.942 64.9718C49.9737 65.9798 49.4297 67.3469 49.4297 68.7723C49.4297 70.1978 49.9737 71.5649 50.942 72.5729C51.9103 73.5809 53.2236 74.1471 54.5931 74.1471C55.0495 74.1471 55.4873 74.3359 55.8101 74.6719C56.1329 75.0079 56.3142 75.4636 56.3142 75.9387C56.3142 76.4139 56.1329 76.8696 55.8101 77.2056C55.4873 77.5416 55.0495 77.7303 54.5931 77.7303C52.3107 77.7303 50.1218 76.7865 48.5079 75.1066C46.8941 73.4266 45.9874 71.1481 45.9874 68.7723C45.9874 66.3965 46.8941 64.118 48.5079 62.4381C50.1218 60.7581 52.3107 59.8144 54.5931 59.8144H62.0513V35.3292C62.0513 34.854 62.2326 34.3983 62.5554 34.0623C62.8782 33.7264 63.316 33.5376 63.7724 33.5376C64.2289 33.5376 64.6667 33.7264 64.9895 34.0623C65.3122 34.3983 65.4936 34.854 65.4936 35.3292V59.8144H77.5415C78.5209 59.8144 79.4908 59.6135 80.3957 59.2234C81.3005 58.8332 82.1227 58.2614 82.8153 57.5404C83.5078 56.8195 84.0572 55.9637 84.432 55.0218C84.8068 54.0798 84.9997 53.0703 84.9997 52.0508V51.7522C84.9997 49.7723 84.2442 47.8736 82.8993 46.4736C81.5544 45.0737 79.7303 44.2872 77.8284 44.2872H72.9518C72.4953 44.2872 72.0576 44.0984 71.7348 43.7624C71.412 43.4264 71.2307 42.9707 71.2307 42.4956C71.2307 42.0204 71.412 41.5647 71.7348 41.2287C72.0576 40.8927 72.4953 40.704 72.9518 40.704H77.8284C80.6433 40.704 83.3429 41.868 85.3333 43.9399C87.3238 46.0119 88.442 48.822 88.442 51.7522ZM43.1188 56.2312H36.2343C35.7778 56.2312 35.3401 56.0424 35.0173 55.7064C34.6945 55.3704 34.5132 54.9147 34.5132 54.4396V52.0508C34.5132 49.0414 35.6616 46.1553 37.7059 44.0274C39.7501 41.8994 42.5227 40.704 45.4137 40.704H54.5931C55.0495 40.704 55.4873 40.8927 55.8101 41.2287C56.1329 41.5647 56.3142 42.0204 56.3142 42.4956C56.3142 42.9707 56.1329 43.4264 55.8101 43.7624C55.4873 44.0984 55.0495 44.2872 54.5931 44.2872H54.0194V44.8844C54.0194 47.8937 52.8709 50.7798 50.8267 52.9078C48.7824 55.0357 46.0098 56.2312 43.1188 56.2312ZM50.5771 44.2872H45.4137C43.4356 44.2872 41.5386 45.1051 40.1399 46.5611C38.7412 48.017 37.9554 49.9917 37.9554 52.0508V52.648H43.1188C45.0969 52.648 46.9939 51.83 48.3926 50.3741C49.7913 48.9181 50.5771 46.9434 50.5771 44.8844V44.2872Z" fill="#475536"/>
</svg>
