<svg width="132" height="138" viewBox="0 0 132 138" fill="none" xmlns="http://www.w3.org/2000/svg">
<ellipse cx="66.2969" cy="69.1964" rx="65.7031" ry="68.3951" fill="#DDFFB1"/>
<path d="M48.301 71.3649H36.8271C36.3707 71.3649 35.9329 71.1761 35.6102 70.8401C35.2874 70.5042 35.1061 70.0485 35.1061 69.5733C35.1061 69.0981 35.2874 68.6424 35.6102 68.3064C35.9329 67.9704 36.3707 67.7817 36.8271 67.7817H47.3803L51.4564 61.4125C51.6133 61.1662 51.8265 60.9641 52.0767 60.8243C52.327 60.6845 52.6066 60.6113 52.8906 60.6113C53.1746 60.6113 53.4542 60.6845 53.7045 60.8243C53.9547 60.9641 54.1678 61.1662 54.3248 61.4125L62.0697 73.5088L65.225 68.579C65.3825 68.3333 65.5958 68.132 65.846 67.9929C66.0962 67.8538 66.3756 67.7813 66.6593 67.7817H73.5436C74.0001 67.7817 74.4378 67.9704 74.7606 68.3064C75.0834 68.6424 75.2647 69.0981 75.2647 69.5733C75.2647 70.0485 75.0834 70.5042 74.7606 70.8401C74.4378 71.1761 74.0001 71.3649 73.5436 71.3649H67.58L63.5039 77.734C63.3469 77.9804 63.1338 78.1825 62.8836 78.3223C62.6333 78.4621 62.3537 78.5353 62.0697 78.5353C61.7857 78.5353 61.5061 78.4621 61.2558 78.3223C61.0056 78.1825 60.7925 77.9804 60.6355 77.734L52.8906 65.6377L49.7353 70.5676C49.5778 70.8133 49.3645 71.0146 49.1143 71.1537C48.8641 71.2928 48.5847 71.3653 48.301 71.3649ZM78.7068 41.5049C72.6831 41.5049 67.4452 44.3326 64.3645 49.0714C61.2837 44.3326 56.0459 41.5049 50.0221 41.5049C45.4592 41.5104 41.0846 43.3998 37.8581 46.7585C34.6316 50.1172 32.8166 54.671 32.8113 59.4209C32.8113 59.6379 32.8113 59.8558 32.8113 60.0748C32.8257 60.55 33.0209 60.9997 33.3539 61.3251C33.5188 61.4862 33.7125 61.6119 33.9241 61.695C34.1356 61.7782 34.3608 61.8171 34.5869 61.8097C34.8129 61.8022 35.0353 61.7485 35.2413 61.6516C35.4474 61.5547 35.6331 61.4165 35.7879 61.2448C35.9426 61.0732 36.0634 60.8715 36.1433 60.6513C36.2232 60.4311 36.2606 60.1966 36.2534 59.9614C36.2534 59.7822 36.2534 59.6 36.2534 59.4209C36.2572 55.6208 37.7091 51.9775 40.2904 49.2904C42.8717 46.6034 46.3716 45.092 50.0221 45.0881C55.8394 45.0881 60.7244 48.3219 62.7725 53.5295C62.9021 53.8581 63.1227 54.1392 63.4062 54.337C63.6897 54.5348 64.0232 54.6404 64.3645 54.6404C64.7057 54.6404 65.0393 54.5348 65.3228 54.337C65.6062 54.1392 65.8268 53.8581 65.9565 53.5295C68.0046 48.3219 72.8896 45.0881 78.7068 45.0881C82.3574 45.092 85.8573 46.6034 88.4386 49.2904C91.0199 51.9775 92.4717 55.6208 92.4755 59.4209C92.4755 76.0619 69.0659 90.968 64.3645 93.7927C61.5419 92.1027 52.0042 86.0829 44.813 77.9192C44.6634 77.7345 44.4796 77.5833 44.2725 77.4745C44.0653 77.3657 43.8392 77.3017 43.6077 77.2862C43.3762 77.2707 43.1441 77.304 42.9253 77.3843C42.7065 77.4645 42.5055 77.59 42.3345 77.7531C42.1634 77.9163 42.0259 78.1137 41.93 78.3336C41.8341 78.5535 41.7819 78.7914 41.7766 79.0328C41.7712 79.2742 41.8128 79.5143 41.8989 79.7385C41.9849 79.9628 42.1136 80.1666 42.2772 80.3378C51.1523 90.4215 63.0479 97.146 63.5498 97.4267C63.8003 97.5668 64.0802 97.6401 64.3645 97.6401C64.6488 97.6401 64.9287 97.5668 65.1791 97.4267C70.5833 94.2642 75.6805 90.5642 80.3992 86.3785C90.6971 77.2145 95.9177 68.14 95.9177 59.4209C95.9124 54.671 94.0974 50.1172 90.8709 46.7585C87.6444 43.3998 83.2698 41.5104 78.7068 41.5049Z" fill="#343330"/>
</svg>
