<svg width="90" height="90" viewBox="0 0 90 90" fill="none" xmlns="http://www.w3.org/2000/svg">
<circle cx="45" cy="45" r="44.5" fill="#D9D9D9" stroke="black"/>
<g clip-path="url(#clip0_265_532)">
<path d="M34.2199 62.161H25.8374V35.4274H34.2199V62.161ZM30.0241 31.7807C27.3443 31.7807 25.1697 29.5819 25.1697 26.9273C25.1697 25.652 25.6811 24.4289 26.5915 23.5271C27.5019 22.6253 28.7367 22.1187 30.0241 22.1187C31.3116 22.1187 32.5464 22.6253 33.4568 23.5271C34.3671 24.4289 34.8786 25.652 34.8786 26.9273C34.8786 29.5819 32.704 31.7807 30.0241 31.7807ZM65.5844 62.161H57.2199V49.1473C57.2199 46.0458 57.1568 42.0683 52.8617 42.0683C48.5036 42.0683 47.8358 45.438 47.8358 48.9238V62.161H39.4624V35.4274H47.502V39.0741H47.6193C48.7382 36.9737 51.4722 34.757 55.5506 34.757C64.0324 34.757 65.5934 40.2897 65.5934 47.4758V62.161H65.5844Z" fill="#2B3320"/>
</g>
<defs>
<clipPath id="clip0_265_532">
<rect width="40.4237" height="45.7627" fill="white" transform="translate(25.1697 22.1187)"/>
</clipPath>
</defs>
</svg>
