<svg width="90" height="90" viewBox="0 0 90 90" fill="none" xmlns="http://www.w3.org/2000/svg">
<circle cx="45" cy="45" r="44.5" fill="#2B3320" stroke="black"/>
<rect width="40" height="40" transform="translate(25 25)" fill="#2B3320"/>
<path d="M57.5 36.875H40.625V33.75C40.625 32.5897 41.0859 31.4769 41.9064 30.6564C42.7269 29.8359 43.8397 29.375 45 29.375C47.1109 29.375 49.0078 30.8781 49.4125 32.8734C49.4615 33.1147 49.5576 33.344 49.6953 33.5482C49.8329 33.7524 50.0094 33.9274 50.2148 34.0634C50.4201 34.1993 50.6501 34.2935 50.8918 34.3405C51.1335 34.3876 51.3821 34.3865 51.6234 34.3375C51.8647 34.2885 52.094 34.1924 52.2982 34.0547C52.5024 33.9171 52.6774 33.7406 52.8134 33.5352C52.9493 33.3299 53.0435 33.0999 53.0905 32.8582C53.1376 32.6165 53.1365 32.3679 53.0875 32.1266C52.3234 28.3594 48.9219 25.625 45 25.625C42.8459 25.6275 40.7807 26.4843 39.2575 28.0075C37.7343 29.5307 36.8775 31.5959 36.875 33.75V36.875H32.5C31.6712 36.875 30.8763 37.2042 30.2903 37.7903C29.7042 38.3763 29.375 39.1712 29.375 40V57.5C29.375 58.3288 29.7042 59.1237 30.2903 59.7097C30.8763 60.2958 31.6712 60.625 32.5 60.625H57.5C58.3288 60.625 59.1237 60.2958 59.7097 59.7097C60.2958 59.1237 60.625 58.3288 60.625 57.5V40C60.625 39.1712 60.2958 38.3763 59.7097 37.7903C59.1237 37.2042 58.3288 36.875 57.5 36.875ZM56.875 56.875H33.125V40.625H56.875V56.875ZM42.5 48.75C42.5 48.2555 42.6466 47.7722 42.9213 47.3611C43.196 46.95 43.5865 46.6295 44.0433 46.4403C44.5001 46.2511 45.0028 46.2016 45.4877 46.298C45.9727 46.3945 46.4181 46.6326 46.7678 46.9822C47.1174 47.3319 47.3555 47.7773 47.452 48.2623C47.5484 48.7472 47.4989 49.2499 47.3097 49.7067C47.1205 50.1635 46.8 50.554 46.3889 50.8287C45.9778 51.1034 45.4945 51.25 45 51.25C44.337 51.25 43.7011 50.9866 43.2322 50.5178C42.7634 50.0489 42.5 49.413 42.5 48.75Z" fill="white"/>
</svg>
