<svg width="84" height="84" viewBox="0 0 84 84" fill="none" xmlns="http://www.w3.org/2000/svg">
<g clip-path="url(#clip0_265_202)">
<path d="M16.0405 60.6235C12.4355 56.7945 10.5 52.5 10.5 45.5385C10.5 33.2885 19.0995 22.309 31.605 16.8805L34.7305 21.7035C23.058 28.0175 20.776 36.211 19.866 41.377C21.7455 40.404 24.206 40.0645 26.6175 40.2885C32.9315 40.873 37.9085 46.0565 37.9085 52.5C37.9085 55.7489 36.6179 58.8647 34.3206 61.1621C32.0232 63.4594 28.9074 64.75 25.6585 64.75C21.903 64.75 18.312 63.035 16.0405 60.6235ZM51.0405 60.6235C47.4355 56.7945 45.5 52.5 45.5 45.5385C45.5 33.2885 54.0995 22.309 66.605 16.8805L69.7305 21.7035C58.058 28.0175 55.776 36.211 54.866 41.377C56.7455 40.404 59.206 40.0645 61.6175 40.2885C67.9315 40.873 72.9085 46.0565 72.9085 52.5C72.9085 55.7489 71.6179 58.8647 69.3206 61.1621C67.0232 63.4594 63.9074 64.75 60.6585 64.75C56.903 64.75 53.312 63.035 51.0405 60.6235Z" fill="#F1FFE0"/>
</g>
<defs>
<clipPath id="clip0_265_202">
<rect width="84" height="84" fill="white"/>
</clipPath>
</defs>
</svg>
