<svg width="124" height="110" viewBox="0 0 124 110" fill="none" xmlns="http://www.w3.org/2000/svg">
<path d="M82.6667 9.16675H41.3333C38.5928 9.16675 35.9644 10.1325 34.0266 11.8516C32.0887 13.5707 31 15.9023 31 18.3334V29.7917H40.0417V21.7709C40.0417 20.5553 40.586 19.3896 41.5549 18.53C42.5239 17.6705 43.838 17.1876 45.2083 17.1876H78.7917C80.1619 17.1876 81.4761 17.6705 82.445 18.53C83.414 19.3896 83.9583 20.5553 83.9583 21.7709V29.7917H93V18.3334C93 15.9023 91.9113 13.5707 89.9734 11.8516C88.0356 10.1325 85.4072 9.16675 82.6667 9.16675Z" fill="#575072"/>
<path d="M111.083 29.7917H12.9167C7.20973 29.7917 2.58334 33.8958 2.58334 38.9584V91.6668C2.58334 96.7294 7.20973 100.833 12.9167 100.833H111.083C116.79 100.833 121.417 96.7294 121.417 91.6668V38.9584C121.417 33.8958 116.79 29.7917 111.083 29.7917Z" fill="#EAEAEA"/>
<path d="M82.6667 9.16675H41.3333C38.5928 9.16675 35.9644 10.1325 34.0266 11.8516C32.0887 13.5707 31 15.9023 31 18.3334V29.7917H40.0417V21.7709C40.0417 20.5553 40.586 19.3896 41.5549 18.53C42.5239 17.6705 43.838 17.1876 45.2083 17.1876H78.7917C80.162 17.1876 81.4761 17.6705 82.445 18.53C83.414 19.3896 83.9583 20.5553 83.9583 21.7709V29.7917H93V18.3334C93 15.9023 91.9113 13.5707 89.9734 11.8516C88.0356 10.1325 85.4072 9.16675 82.6667 9.16675Z" stroke="#281A3B" stroke-width="4" stroke-linecap="round" stroke-linejoin="round"/>
<path d="M72.3333 75.6251H83.9583C84.986 75.6251 85.9717 75.2629 86.6984 74.6183C87.4251 73.9736 87.8333 73.0993 87.8333 72.1876V60.7292C87.8333 59.8176 87.4251 58.9432 86.6984 58.2986C85.9717 57.6539 84.986 57.2917 83.9583 57.2917H72.3333V46.9792C72.3333 46.0676 71.9251 45.1932 71.1984 44.5486C70.4717 43.9039 69.486 43.5417 68.4583 43.5417H55.5417C54.5139 43.5417 53.5283 43.9039 52.8016 44.5486C52.0749 45.1932 51.6667 46.0676 51.6667 46.9792V57.2917H40.0417C39.0139 57.2917 38.0283 57.6539 37.3016 58.2986C36.5749 58.9432 36.1667 59.8176 36.1667 60.7292V72.1876C36.1667 73.0993 36.5749 73.9736 37.3016 74.6183C38.0283 75.2629 39.0139 75.6251 40.0417 75.6251H51.6667V85.9376C51.6667 86.8493 52.0749 87.7236 52.8016 88.3683C53.5283 89.0129 54.5139 89.3751 55.5417 89.3751H68.4583C69.486 89.3751 70.4717 89.0129 71.1984 88.3683C71.9251 87.7236 72.3333 86.8493 72.3333 85.9376V75.6251Z" fill="#F47C6D"/>
<path d="M72.3333 75.6251H83.9583C84.986 75.6251 85.9717 75.2629 86.6984 74.6183C87.4251 73.9736 87.8333 73.0993 87.8333 72.1876V60.7292C87.8333 59.8176 87.4251 58.9432 86.6984 58.2986C85.9717 57.6539 84.986 57.2917 83.9583 57.2917H72.3333V46.9792C72.3333 46.0676 71.9251 45.1932 71.1984 44.5486C70.4717 43.9039 69.486 43.5417 68.4583 43.5417H55.5417C54.5139 43.5417 53.5283 43.9039 52.8016 44.5486C52.0749 45.1932 51.6667 46.0676 51.6667 46.9792V57.2917H40.0417C39.0139 57.2917 38.0283 57.6539 37.3016 58.2986C36.5749 58.9432 36.1667 59.8176 36.1667 60.7292V72.1876C36.1667 73.0993 36.5749 73.9736 37.3016 74.6183C38.0283 75.2629 39.0139 75.6251 40.0417 75.6251H51.6667V85.9376C51.6667 86.8493 52.0749 87.7236 52.8016 88.3683C53.5283 89.0129 54.5139 89.3751 55.5417 89.3751H68.4583C69.486 89.3751 70.4717 89.0129 71.1984 88.3683C71.9251 87.7236 72.3333 86.8493 72.3333 85.9376V75.6251Z" stroke="#281A3B" stroke-width="4" stroke-linecap="round" stroke-linejoin="round"/>
<path d="M111.083 29.7917H91.7083C96.8469 29.7917 101.775 31.6026 105.409 34.8259C109.042 38.0491 111.083 42.4208 111.083 46.9792V83.6459C111.083 88.2043 109.042 92.576 105.409 95.7993C101.775 99.0226 96.8469 100.833 91.7083 100.833H111.083C113.824 100.833 116.452 99.8676 118.39 98.1486C120.328 96.4295 121.417 94.0979 121.417 91.6668V38.9584C121.417 36.5273 120.328 34.1957 118.39 32.4766C116.452 30.7575 113.824 29.7917 111.083 29.7917Z" fill="#BACECE"/>
<path d="M111.083 29.7917H12.9167C7.20973 29.7917 2.58334 33.8958 2.58334 38.9584V91.6668C2.58334 96.7294 7.20973 100.833 12.9167 100.833H111.083C116.79 100.833 121.417 96.7294 121.417 91.6668V38.9584C121.417 33.8958 116.79 29.7917 111.083 29.7917Z" stroke="#281A3B" stroke-width="4" stroke-linecap="round" stroke-linejoin="round"/>
</svg>
