<svg width="136" height="136" viewBox="0 0 136 136" fill="none" xmlns="http://www.w3.org/2000/svg">
<path d="M68 114.559C67.6813 114.559 67.1925 114.474 66.7675 114.049L22.7587 70.0612C17.68 64.9612 14.875 58.1824 14.875 50.9787C14.875 43.7749 17.68 36.9962 22.78 31.8962L25.33 29.3462C30.43 24.2462 37.2087 21.4412 44.4125 21.4412C51.6162 21.4412 58.395 24.2462 63.495 29.3462L68 33.8512L72.505 29.3462C77.605 24.2462 84.3837 21.4412 91.5875 21.4412C98.7912 21.4412 105.57 24.2462 110.67 29.3462L113.22 31.8962C118.32 36.9962 121.125 43.7749 121.125 50.9787C121.125 58.1824 118.32 64.9612 113.22 70.0612L69.2325 114.049C68.8075 114.474 68.3187 114.559 68 114.559Z" fill="#FF6663"/>
<path d="M127.203 56.5037C128.903 56.9499 129.901 58.6924 129.455 60.3924C127.819 66.5974 124.525 72.2712 119.978 76.8187L75.99 120.806C73.8438 122.952 71.0175 124.121 68 124.121C64.9825 124.121 62.1563 122.952 60.01 120.806L46.8138 107.631C45.5813 106.377 45.5813 104.359 46.8138 103.105C48.0675 101.872 50.0863 101.872 51.34 103.105L64.515 116.301C66.385 118.171 69.615 118.171 71.485 116.301L115.473 72.3137C119.234 68.5524 121.933 63.8774 123.293 58.7562C123.739 57.0562 125.481 56.0362 127.203 56.5037Z" fill="#542C2C"/>
<path d="M128.35 38.1013C128.966 39.7375 128.138 41.5863 126.501 42.2025C126.119 42.3513 125.736 42.415 125.375 42.415C124.079 42.415 122.868 41.6288 122.379 40.3538C122.039 39.3975 121.635 38.4625 121.189 37.57C120.403 35.9975 121.04 34.085 122.634 33.2988C124.206 32.5125 126.119 33.1713 126.884 34.7438C127.436 35.8275 127.925 36.9538 128.35 38.1013Z" fill="#542C2C"/>
<path d="M119.978 25.1387C121.231 26.3712 121.231 28.3899 119.978 29.6437C118.745 30.8762 116.726 30.8762 115.473 29.6437L112.923 27.0937C101.171 15.3212 82.0251 15.3212 70.2526 27.0937C68.9988 28.3262 67.0013 28.3262 65.7476 27.0937C53.9751 15.3212 34.8288 15.3212 23.0776 27.0937L20.5276 29.6437C14.8326 35.3387 11.6876 42.9037 11.6876 50.9787C11.6876 59.0324 14.8326 66.6187 20.5276 72.3137L34.8288 86.6149C36.0613 87.8474 36.0613 89.8662 34.8288 91.1199C34.1913 91.7362 33.3838 92.0549 32.5763 92.0549C31.7476 92.0549 30.9401 91.7362 30.3238 91.1199L16.0226 76.8187C1.7638 62.5599 1.7638 39.3762 16.0226 25.1387L18.5726 22.5887C32.0876 9.07366 53.6563 8.37241 68.0001 20.5062C74.5876 14.9174 82.8538 11.8787 91.5876 11.8787C101.363 11.8787 110.543 15.6824 117.428 22.5887L119.978 25.1387Z" fill="#542C2C"/>
<path d="M100.746 64.9187C102.489 64.9187 103.934 66.3425 103.934 68.1062C103.934 69.87 102.489 71.2937 100.746 71.2937H80.7076L70.8263 90.3337C70.2738 91.3962 69.1688 92.055 68.0001 92.055C67.8088 92.055 67.6388 92.0337 67.4476 91.9912C66.0663 91.7575 65.0251 90.6525 64.8338 89.2712L61.5613 63.7287L60.0101 69.4662C59.6488 70.8475 58.3738 71.825 56.9288 71.825H39.6738C37.9101 71.825 36.4863 70.38 36.4863 68.6375C36.4863 66.8737 37.9101 65.45 39.6738 65.45H54.5063L59.6063 46.5375C59.9888 45.0712 61.3701 44.0512 62.9001 44.1787C64.4088 44.285 65.6413 45.4537 65.8326 46.9625L69.8701 78.3487L75.9263 66.64C76.4788 65.5987 77.5626 64.9187 78.7738 64.9187H100.746Z" fill="#542C2C"/>
<path d="M55.0163 125.821C56.2488 127.075 56.2488 129.094 55.0163 130.326C54.3788 130.942 53.5713 131.261 52.7638 131.261C51.9351 131.261 51.1276 130.942 50.4901 130.326L27.9013 107.737C26.6688 106.484 26.6688 104.465 27.9013 103.232C29.1551 101.979 31.1738 101.979 32.4063 103.232L55.0163 125.821Z" fill="#542C2C"/>
<path d="M43.5838 95.3698C44.8375 96.6235 44.8375 98.6423 43.5838 99.8748C42.9675 100.491 42.1388 100.81 41.3313 100.81C40.5238 100.81 39.695 100.491 39.0788 99.8748L37.4213 98.2173C36.1675 96.9848 36.1675 94.966 37.4213 93.7123C38.675 92.4585 40.6725 92.4585 41.9263 93.7123L43.5838 95.3698Z" fill="#542C2C"/>
<path d="M22.0576 92.8837C23.3113 94.1162 23.3113 96.1349 22.0576 97.3887C21.4413 98.0049 20.6338 98.3237 19.8051 98.3237C18.9976 98.3237 18.1688 98.0049 17.5526 97.3887L15.2576 95.0724C14.0038 93.8399 14.0038 91.8212 15.2576 90.5674C16.4901 89.3349 18.5088 89.3349 19.7626 90.5674L22.0576 92.8837Z" fill="#542C2C"/>
</svg>
