<svg width="40" height="40" viewBox="0 0 40 40" fill="none" xmlns="http://www.w3.org/2000/svg">
<path d="M38.0625 23.2501C37.964 23.3239 37.8519 23.3777 37.7327 23.4082C37.6134 23.4388 37.4893 23.4456 37.3674 23.4281C37.2455 23.4107 37.1283 23.3695 37.0224 23.3068C36.9164 23.244 36.8239 23.1611 36.75 23.0626C35.9676 22.0109 34.9493 21.1575 33.7769 20.5713C32.6045 19.9851 31.3108 19.6824 30 19.6876C29.7514 19.6876 29.5129 19.5888 29.3371 19.413C29.1613 19.2372 29.0625 18.9987 29.0625 18.7501C29.0625 18.5014 29.1613 18.263 29.3371 18.0872C29.5129 17.9113 29.7514 17.8126 30 17.8126C30.7598 17.8124 31.5043 17.5992 32.149 17.1971C32.7937 16.795 33.3127 16.2202 33.647 15.538C33.9814 14.8557 34.1178 14.0934 34.0406 13.3375C33.9635 12.5816 33.6759 11.8626 33.2105 11.262C32.7452 10.6613 32.1208 10.2033 31.4081 9.93974C30.6955 9.67622 29.9233 9.61782 29.1791 9.77118C28.435 9.92454 27.7487 10.2835 27.1984 10.8073C26.648 11.3311 26.2556 11.9988 26.0656 12.7344C26.0035 12.9752 25.8482 13.1814 25.634 13.3077C25.4198 13.434 25.1642 13.47 24.9234 13.4079C24.6827 13.3457 24.4765 13.1905 24.3502 12.9763C24.2239 12.7621 24.1878 12.5065 24.25 12.2657C24.4857 11.3492 24.937 10.5023 25.5663 9.79554C26.1957 9.08882 26.9848 8.54277 27.868 8.20289C28.7512 7.86302 29.7028 7.73917 30.6436 7.84167C31.5843 7.94417 32.487 8.27005 33.2762 8.79215C34.0655 9.31424 34.7185 10.0174 35.1809 10.8431C35.6433 11.6688 35.9017 12.593 35.9344 13.5388C35.9672 14.4845 35.7734 15.4244 35.3692 16.2801C34.965 17.1358 34.3622 17.8824 33.6109 18.4579C35.4596 19.1477 37.0703 20.3559 38.25 21.9376C38.3239 22.0361 38.3776 22.1481 38.4082 22.2674C38.4387 22.3867 38.4455 22.5108 38.4281 22.6326C38.4107 22.7545 38.3694 22.8718 38.3067 22.9777C38.244 23.0837 38.161 23.1762 38.0625 23.2501ZM29.5609 33.2813C29.6226 33.3879 29.6627 33.5056 29.6789 33.6277C29.6951 33.7498 29.6871 33.8738 29.6553 33.9928C29.6235 34.1118 29.5686 34.2234 29.4937 34.3211C29.4188 34.4189 29.3254 34.5009 29.2188 34.5626C29.0766 34.6459 28.9148 34.6896 28.75 34.6891C28.5853 34.6892 28.4235 34.646 28.2809 34.5637C28.1383 34.4814 28.0198 34.363 27.9375 34.2204C27.1226 32.8397 25.9617 31.6954 24.5694 30.9005C23.1772 30.1055 21.6017 29.6874 19.9984 29.6874C18.3952 29.6874 16.8197 30.1055 15.4274 30.9005C14.0352 31.6954 12.8743 32.8397 12.0594 34.2204C12.0008 34.3324 11.9201 34.4314 11.8222 34.5115C11.7244 34.5915 11.6113 34.651 11.4899 34.6862C11.3684 34.7214 11.2411 34.7317 11.1156 34.7165C10.9901 34.7012 10.869 34.6608 10.7595 34.5975C10.65 34.5342 10.5545 34.4494 10.4786 34.3483C10.4028 34.2471 10.3482 34.1317 10.3181 34.0089C10.288 33.8861 10.2831 33.7584 10.3036 33.6337C10.3241 33.5089 10.3697 33.3896 10.4375 33.2829C11.7144 31.0889 13.7138 29.4066 16.0938 28.5235C14.7937 27.6794 13.8013 26.4376 13.2647 24.9834C12.7281 23.5291 12.676 21.9404 13.1162 20.4542C13.5564 18.9679 14.4652 17.6638 15.7072 16.7363C16.9492 15.8088 18.4577 15.3077 20.0078 15.3077C21.5579 15.3077 23.0664 15.8088 24.3084 16.7363C25.5504 17.6638 26.4592 18.9679 26.8994 20.4542C27.3396 21.9404 27.2875 23.5291 26.7509 24.9834C26.2143 26.4376 25.2219 27.6794 23.9219 28.5235C26.2952 29.4096 28.288 31.091 29.5609 33.2813ZM20 27.8126C21.0507 27.8126 22.0778 27.501 22.9515 26.9172C23.8251 26.3335 24.506 25.5038 24.9081 24.5331C25.3102 23.5623 25.4154 22.4942 25.2104 21.4636C25.0054 20.4331 24.4995 19.4865 23.7565 18.7436C23.0135 18.0006 22.0669 17.4946 21.0364 17.2896C20.0059 17.0847 18.9377 17.1899 17.967 17.592C16.9963 17.994 16.1666 18.675 15.5828 19.5486C14.9991 20.4222 14.6875 21.4494 14.6875 22.5001C14.6875 23.909 15.2472 25.2603 16.2435 26.2566C17.2398 27.2529 18.591 27.8126 20 27.8126ZM10.9375 18.7501C10.9375 18.5014 10.8387 18.263 10.6629 18.0872C10.4871 17.9113 10.2486 17.8126 10 17.8126C9.2403 17.8123 8.49589 17.5991 7.85129 17.197C7.2067 16.795 6.68776 16.2202 6.3534 15.5381C6.01904 14.8559 5.88266 14.0936 5.95975 13.3379C6.03683 12.5821 6.32429 11.863 6.78949 11.2624C7.25468 10.6618 7.87897 10.2037 8.59146 9.94003C9.30395 9.67639 10.0761 9.61782 10.8202 9.77096C11.5643 9.9241 12.2506 10.2828 12.801 10.8064C13.3515 11.3299 13.7442 11.9974 13.9344 12.7329C13.9652 12.8521 14.0191 12.9641 14.0932 13.0624C14.1672 13.1608 14.2599 13.2436 14.366 13.3061C14.4721 13.3687 14.5894 13.4097 14.7113 13.4269C14.8332 13.4441 14.9573 13.4371 15.0766 13.4063C15.1958 13.3755 15.3078 13.3216 15.4061 13.2475C15.5045 13.1735 15.5873 13.0808 15.6498 12.9747C15.7124 12.8686 15.7534 12.7513 15.7706 12.6294C15.7878 12.5075 15.7808 12.3833 15.75 12.2641C15.5143 11.3476 15.063 10.5007 14.4337 9.79398C13.8043 9.08726 13.0152 8.54121 12.132 8.20133C11.2488 7.86146 10.2972 7.73761 9.35643 7.84011C8.41567 7.94261 7.51304 8.26849 6.72377 8.79058C5.9345 9.31268 5.28145 10.0159 4.81907 10.8415C4.35668 11.6672 4.09835 12.5914 4.0656 13.5372C4.03285 14.483 4.22663 15.4228 4.6308 16.2785C5.03496 17.1342 5.6378 17.8809 6.38906 18.4563C4.54018 19.1466 2.92952 20.3553 1.75 21.9376C1.67613 22.0361 1.62239 22.1481 1.59183 22.2674C1.56128 22.3867 1.55451 22.5108 1.57192 22.6326C1.58933 22.7545 1.63058 22.8718 1.69331 22.9777C1.75603 23.0837 1.83901 23.1762 1.9375 23.2501C2.03599 23.3239 2.14807 23.3777 2.26733 23.4082C2.38659 23.4388 2.51071 23.4456 2.63258 23.4281C2.75446 23.4107 2.87171 23.3695 2.97765 23.3068C3.08359 23.244 3.17613 23.1611 3.25 23.0626C4.03235 22.0109 5.05073 21.1575 6.22314 20.5713C7.39555 19.9851 8.68922 19.6824 10 19.6876C10.2486 19.6876 10.4871 19.5888 10.6629 19.413C10.8387 19.2372 10.9375 18.9987 10.9375 18.7501Z" fill="#343330"/>
</svg>
