<svg width="114" height="101" viewBox="0 0 114 101" fill="none" xmlns="http://www.w3.org/2000/svg">
<path d="M96.1875 41.0312H92.625V28.4062C92.625 23.1984 87.8156 18.9375 81.9375 18.9375H77.7337H36.2663H32.0625C26.1844 18.9375 21.375 23.1984 21.375 28.4062V72.5938C21.375 77.8016 26.1844 82.0625 32.0625 82.0625H36.2663H77.7337H81.9375C87.8156 82.0625 92.625 77.8016 92.625 72.5938V59.9688H96.1875C98.1547 59.9688 99.75 58.557 99.75 56.8125V44.1875C99.75 42.443 98.1547 41.0312 96.1875 41.0312ZM78.375 50.5H69.8963L60.1706 67.7016C59.565 68.7747 58.3537 69.4375 57 69.4375C56.8575 69.4375 56.6794 69.4375 56.5369 69.4059C55.005 69.2166 53.7938 68.2381 53.5088 66.9125L48.735 45.7656L46.0631 51.6678C45.5288 52.8672 44.2106 53.6562 42.75 53.6562H35.625C33.6656 53.6562 32.0625 52.2359 32.0625 50.5C32.0625 48.7641 33.6656 47.3438 35.625 47.3438H40.3275L46.5619 33.5509C47.1675 32.2569 48.6281 31.4362 50.1956 31.5625C51.7631 31.6888 53.0456 32.7303 53.3662 34.0875L58.4606 56.6547L64.5169 45.9234C65.0869 44.8503 66.3338 44.1875 67.6875 44.1875H78.375C80.3344 44.1875 81.9375 45.6078 81.9375 47.3438C81.9375 49.0797 80.3344 50.5 78.375 50.5Z" fill="#364F6B"/>
<path d="M69.0412 12.625H76.3087L74.7412 5.68125C74.4206 4.22937 72.96 3.15625 71.25 3.15625H42.75C41.04 3.15625 39.5794 4.22937 39.2587 5.68125L37.6912 12.625H44.9587H69.0412Z" fill="#3FC1C9"/>
<path d="M44.9587 88.375H37.6912L39.2587 95.3188C39.5794 96.7706 41.04 97.8438 42.75 97.8438H71.25C72.96 97.8438 74.4206 96.7706 74.7412 95.3188L76.3087 88.375H69.0412H44.9587Z" fill="#3FC1C9"/>
</svg>
