<svg width="352" height="108" viewBox="0 0 352 108" fill="none" xmlns="http://www.w3.org/2000/svg">
<g clip-path="url(#clip0_265_234)">
<path d="M149.584 25.6058H149.524L144.737 50.6719H138.155L131.933 20.0889H137.198L141.506 43.6558H141.566L146.173 20.0889H152.994L157.541 43.6558H157.601L162.089 20.0889H167.175L160.892 50.6719H154.191L149.584 25.6058Z" fill="#009CDE"/>
<path d="M175.073 27.7046C179.68 27.7046 184.945 30.1033 184.945 39.2782C184.945 48.7529 179.68 50.9117 175.073 50.9117C170.465 50.9117 165.14 48.6929 165.14 39.2782C165.2 30.1033 170.525 27.7046 175.073 27.7046ZM175.073 47.1338C178.543 47.1338 179.381 43.116 179.381 39.3381C179.381 35.5602 178.603 31.6024 175.073 31.6024C171.542 31.6024 170.765 35.5602 170.765 39.3381C170.765 43.116 171.602 47.1338 175.073 47.1338Z" fill="#009CDE"/>
<path d="M187.638 31.7824C187.638 30.5231 187.578 29.3238 187.458 28.0645H192.364C192.424 29.4437 192.544 30.823 192.544 32.2022H192.604C193.262 30.4632 194.937 27.7646 198.348 27.7646C198.647 27.7646 198.946 27.8246 199.245 27.8846V32.9818C198.767 32.8618 198.228 32.7419 197.749 32.7419C195.536 32.7419 193.082 34.1211 193.082 38.3188V50.6719H187.697L187.638 31.7824Z" fill="#009CDE"/>
<path d="M201.579 17.8101H207.024V50.6118H201.579V17.8101Z" fill="#009CDE"/>
<path d="M229.102 17.8101V46.774C229.102 48.0333 229.162 49.3525 229.282 50.6118H224.196C224.076 49.4725 224.016 48.2731 224.016 47.1338H223.897C222.999 49.0527 221.384 50.9716 217.913 50.9716C212.349 50.9716 210.015 45.6346 210.015 39.3981C210.015 32.0222 212.947 27.7645 217.794 27.7645C220.307 27.6446 222.58 29.0838 223.597 31.3625H223.657V17.8101H229.102ZM219.349 46.9539C222.52 46.9539 223.597 43.4758 223.597 39.2781C223.597 34.9006 222.401 31.7223 219.409 31.7223C216.417 31.7223 215.34 34.6607 215.34 39.1582C215.4 44.3753 216.238 46.9539 219.349 46.9539Z" fill="#009CDE"/>
<path d="M245.197 20.0889H250.822V32.502H259.857V20.0889H265.421V50.6719H259.857V37.1194H250.822V50.6119H245.197V20.0889Z" fill="#009CDE"/>
<path d="M285.226 49.5326C283.132 50.492 280.798 50.9718 278.525 50.9718C271.285 50.9718 268.114 45.7547 268.114 39.698C268.114 32.9817 271.644 27.7646 277.388 27.7646C282.234 27.7646 286.363 30.5831 286.363 39.818V40.8973H273.379C273.379 44.7352 274.935 47.0739 279.123 47.0739C282.414 47.0739 284.029 46.0545 285.046 45.3349L285.226 49.5326ZM281.097 37.4193C281.097 33.4615 279.781 31.4226 277.328 31.4226C274.456 31.4226 273.319 34.421 273.319 37.4193H281.097Z" fill="#009CDE"/>
<path d="M289.833 29.3837C292.047 28.3043 294.5 27.7046 296.953 27.7046C303.954 27.7046 305.569 31.1227 305.569 36.7596V46.5941C305.569 47.9134 305.689 49.2326 305.868 50.5519H300.962C300.723 49.5325 300.603 48.513 300.663 47.4936H300.603C299.227 49.3526 297.552 50.9117 294.321 50.9117C290.85 50.9117 287.619 48.513 287.619 44.3154C287.619 38.1988 292.585 36.6396 299.466 36.6396H300.543V35.8001C300.543 33.5813 299.466 31.4825 296.355 31.4825C294.141 31.5425 291.987 32.322 290.192 33.7013L289.833 29.3837ZM300.483 39.578H300.005C295.398 39.578 292.645 40.5375 292.645 43.8356C292.526 45.6346 293.902 47.1938 295.697 47.3137C295.816 47.3137 295.996 47.3137 296.116 47.3137C299.347 47.3137 300.543 44.915 300.543 40.8973V39.578H300.483Z" fill="#009CDE"/>
<path d="M310.535 17.8101H315.92V50.6118H310.535V17.8101Z" fill="#009CDE"/>
<path d="M322.143 23.4469L327.528 21.7678V28.0643H332.016V32.0221H327.528V43.7756C327.528 46.1743 328.426 46.8939 329.981 46.8939C330.699 46.8939 331.417 46.714 332.016 46.4141V50.252C330.879 50.7317 329.622 50.9716 328.366 50.9716C324.357 50.9716 322.083 49.1126 322.083 44.3753V32.0821H318.493V28.1243H322.083V23.4469H322.143Z" fill="#009CDE"/>
<path d="M333.751 17.8101H339.136V31.0027H339.256C340.213 29.6235 341.469 27.7645 344.82 27.7645C349.906 27.7645 351.462 31.5424 351.462 36.0999V50.6118H346.077V37.1193C346.077 33.6413 345.179 32.2021 342.965 32.2021C340.153 32.2021 339.136 34.6007 339.136 37.4791V50.6118H333.751V17.8101Z" fill="#009CDE"/>
<path d="M144.318 58.7673C150.661 58.7673 156.464 63.5047 156.464 74.4786C156.464 85.4525 150.661 90.1899 144.318 90.1899C137.976 90.1899 132.172 85.4525 132.172 74.4786C132.172 63.5047 137.976 58.7673 144.318 58.7673ZM144.318 85.9322C147.848 85.9322 150.72 82.9339 150.72 74.4786C150.72 66.0233 147.848 63.0849 144.318 63.0849C140.788 63.0849 137.916 66.0833 137.916 74.4786C137.916 82.8739 140.788 85.9322 144.318 85.9322Z" fill="#009CDE"/>
<path d="M158.738 70.9406C158.738 69.6813 158.678 68.482 158.559 67.2227H163.465C163.525 68.6019 163.644 69.9812 163.644 71.3604H163.704C164.362 69.6214 166.098 66.9229 169.448 66.9229C169.747 66.9229 170.047 66.9828 170.346 67.0428V72.14C169.867 72.02 169.329 71.9001 168.79 71.9001C166.576 71.9001 164.123 73.2793 164.123 77.477V89.8301H158.738V70.9406Z" fill="#009CDE"/>
<path d="M172.978 93.3082C175.013 94.5075 177.286 95.1672 179.62 95.2271C184.706 95.2271 185.543 91.6891 185.543 88.1511V85.9923H185.484C184.586 87.7313 183.09 89.8301 179.56 89.8301C176.449 89.8301 171.722 87.7313 171.722 78.6164C171.722 72.3798 173.936 66.9229 179.859 66.9229C183.15 66.9229 184.646 68.7818 185.783 70.7607H185.962C185.962 69.5614 186.082 68.422 186.142 67.2827H191.048C190.988 68.482 190.869 69.6214 190.869 70.8207V87.4315C190.869 94.5075 188.715 99.4848 180.458 99.4848C177.825 99.4848 175.192 99.005 172.739 98.1055L172.978 93.3082ZM180.817 85.8124C184.227 85.8124 185.603 83.3537 185.603 78.2566C185.603 73.5192 183.808 71.0006 181.235 71.0606C178.363 71.1205 177.286 73.7591 177.286 78.3165C177.286 83.5936 178.962 85.8124 180.817 85.8124Z" fill="#009CDE"/>
<path d="M195.655 68.5419C197.869 67.4025 200.322 66.8628 202.775 66.8628C209.776 66.8628 211.391 70.2809 211.391 75.9178V85.7523C211.391 87.0716 211.511 88.3908 211.691 89.7101H206.784C206.545 88.6907 206.425 87.6712 206.485 86.6518H206.425C205.049 88.5108 203.374 90.0699 200.143 90.0699C196.672 90.0699 193.441 87.6712 193.441 83.4736C193.441 77.357 198.408 75.7978 205.288 75.7978H206.365V74.9583C206.365 72.7395 205.288 70.6407 202.177 70.6407C199.963 70.7007 197.809 71.4802 196.014 72.8595L195.655 68.5419ZM206.306 78.7362H205.827C201.22 78.7362 198.467 79.6957 198.467 82.9938C198.348 84.7928 199.724 86.352 201.519 86.4719C201.639 86.4719 201.758 86.4719 201.938 86.4719C205.169 86.4719 206.365 84.0732 206.365 80.0555L206.306 78.7362Z" fill="#009CDE"/>
<path d="M215.759 70.9406C215.759 69.6813 215.699 68.482 215.58 67.2227H220.666C220.725 68.3621 220.845 69.5614 220.845 70.7008H220.905C221.683 69.3215 223.238 66.9229 226.888 66.9229C231.974 66.9229 233.53 70.7008 233.53 75.2582V89.7702H228.085V76.2177C228.085 72.7396 227.187 71.3004 224.974 71.3004C222.161 71.3004 221.144 73.6991 221.144 76.5775V89.7102H215.759V70.9406Z" fill="#009CDE"/>
<path d="M237.658 57.6279H243.283V62.965H237.658V57.6279ZM237.778 67.2226H243.163V89.7701H237.778V67.2226Z" fill="#009CDE"/>
<path d="M247.411 85.0927L257.044 71.3604H247.71V67.2227H262.429V71.8401L252.976 85.6324H262.729V89.7701H247.351V85.0927H247.411Z" fill="#009CDE"/>
<path d="M266.857 68.5419C269.071 67.4025 271.524 66.8628 273.977 66.8628C280.978 66.8628 282.593 70.2809 282.593 75.9178V85.7523C282.593 87.0716 282.713 88.3908 282.892 89.7101H277.986C277.747 88.6907 277.627 87.6712 277.687 86.6518H277.627C276.251 88.5108 274.576 90.0699 271.345 90.0699C267.874 90.0699 264.643 87.6712 264.643 83.4736C264.643 77.357 269.609 75.7978 276.49 75.7978H277.567V74.9583C277.567 72.7395 276.49 70.6407 273.379 70.6407C271.165 70.7007 269.011 71.4802 267.216 72.8595L266.857 68.5419ZM277.507 78.7362H277.029C272.422 78.7362 269.669 79.6957 269.669 82.9938C269.55 84.7928 270.926 86.352 272.721 86.4719C272.84 86.4719 272.96 86.4719 273.14 86.4719C276.371 86.4719 277.567 84.0732 277.567 80.0555V78.7362H277.507Z" fill="#009CDE"/>
<path d="M288.457 62.6053L293.842 60.9263V67.2228H298.329V71.1806H293.842V82.8741C293.842 85.2727 294.739 85.9923 296.295 85.9923C297.013 85.9923 297.731 85.8724 298.329 85.5126V89.3505C297.193 89.8902 295.936 90.13 294.68 90.0701C290.671 90.0701 288.397 88.2111 288.397 83.5337V71.1806H284.807V67.2228H288.397L288.457 62.6053Z" fill="#009CDE"/>
<path d="M301.62 57.6279H307.185V62.965H301.62V57.6279ZM301.74 67.2226H307.185V89.7701H301.8L301.74 67.2226Z" fill="#009CDE"/>
<path d="M320.049 66.8628C324.656 66.8628 329.921 69.2615 329.921 78.4364C329.921 87.9111 324.656 90.0699 320.049 90.0699C315.442 90.0699 310.117 87.9111 310.117 78.4364C310.176 69.3214 315.502 66.8628 320.049 66.8628ZM320.049 86.292C323.519 86.292 324.357 82.2742 324.357 78.4963C324.357 74.7184 323.579 70.7606 320.049 70.7606C316.519 70.7606 315.741 74.7184 315.741 78.4963C315.741 82.2742 316.579 86.292 320.049 86.292Z" fill="#009CDE"/>
<path d="M334.229 70.9406C334.229 69.6813 334.17 68.482 334.05 67.2227H339.136C339.196 68.3621 339.315 69.5614 339.315 70.7008H339.375C340.153 69.3215 341.709 66.9229 345.359 66.9229C350.444 66.9229 352 70.7008 352 75.2582V89.7702H346.615V76.2177C346.615 72.7396 345.717 71.3004 343.504 71.3004C340.691 71.3004 339.674 73.6991 339.674 76.5775V89.7102H334.289L334.229 70.9406Z" fill="#009CDE"/>
<path d="M99.2636 19.7889C101.597 22.6073 105.666 24.2264 108.059 27.0449C106.324 18.7695 99.9816 11.9932 92.4426 10.3741C96.1523 13.1326 96.9301 16.9705 99.2636 19.7889ZM8.79551 40.7772C14.001 29.4435 21.7195 31.8422 25.0104 21.1082C23.0957 24.3464 14.6592 25.7256 10.77 34.1809C12.8044 29.1437 11.7872 21.468 15.1379 17.2703C5.02601 24.8261 9.33401 36.9394 8.79551 40.7772ZM18.1295 67.8822C19.0869 72.2598 16.3345 78.6762 20.7024 84.7328C16.2149 79.6956 6.64151 78.3764 2.75234 70.7006C7.59884 89.4702 20.2835 85.6323 25.9677 89.7101C21.3007 82.9338 25.13 78.4363 18.1295 67.8822ZM16.6935 79.6956C13.8814 69.2014 18.8475 65.5435 15.078 55.4691C14.719 61.1659 10.8897 63.9244 13.4625 74.2986C8.97501 65.4835 2.03434 62.1853 0 56.1887C0.119667 72.6795 13.3429 75.1382 16.6935 79.6956ZM36.9771 97.2659C33.0879 91.8689 35.7206 88.8106 24.8309 79.036C27.1644 82.634 24.771 87.1315 32.1305 94.0876C24.9505 89.83 14.9584 91.629 10.1717 85.9322C18.4287 101.763 32.9084 95.287 36.9771 97.2659ZM89.9296 94.0876C97.2891 87.0715 94.8958 82.574 97.2293 79.036C86.2798 88.8106 88.9723 91.8689 85.0233 97.2659C89.1518 95.287 103.631 101.763 111.829 85.9322C107.102 91.689 97.1096 89.83 89.9296 94.0876ZM101.358 84.7328C105.726 78.6762 102.973 72.3197 103.871 67.8822C96.8703 78.4363 100.7 82.9338 96.0326 89.7101C101.777 85.6323 114.401 89.4702 119.248 70.7006C115.359 78.3764 105.845 79.6956 101.358 84.7328ZM83.8865 98.0454C79.9973 97.026 75.9884 96.3664 71.9198 96.2464C68.2101 96.1865 64.5004 96.7861 61.0301 98.1054C57.5597 96.7861 53.8501 96.1865 50.1404 96.2464C46.0717 96.3664 42.0629 97.026 38.1737 98.0454C31.592 99.7845 25.9079 101.164 20.9417 98.6451C25.6685 102.843 31.233 104.402 39.2507 103.502C45.8922 102.783 51.2772 99.4247 57.5597 99.4846H57.7991C53.8501 101.464 50.3199 104.222 47.4479 107.58L50.4994 108C50.4994 108 53.6706 101.583 61.0301 99.9044C68.3896 101.583 71.5608 108 71.5608 108L74.6123 107.58C71.7403 104.222 68.2101 101.464 64.2611 99.4846H64.5004C70.7829 99.4247 76.1679 102.783 82.8094 103.502C90.8271 104.342 96.3318 102.843 101.118 98.6451C96.1523 101.164 90.4681 99.7845 83.8865 98.0454ZM15.5567 44.0754C12.8642 49.2925 8.61601 50.4918 9.09468 61.2259C6.82101 51.6912 1.37617 48.0932 1.436 42.0365C-2.3335 57.9877 7.71851 59.8466 10.3512 66.5629C9.93235 56.9683 16.0354 55.0493 15.5567 44.0754ZM19.3262 31.7822C18.3689 33.1015 17.7107 33.7012 15.1977 35.74C11.4282 38.7384 8.79551 42.996 7.89801 47.7334C8.13735 41.8566 4.54734 33.4613 6.94068 27.3447C-2.3335 40.4774 7.47918 48.333 7.83818 53.1304C10.1717 43.9555 15.7362 43.8955 19.3262 31.7822ZM114.162 47.7334C113.205 42.996 110.632 38.7384 106.862 35.74C104.349 33.6412 103.691 33.1015 102.734 31.7822C106.324 43.8955 111.888 43.9555 114.282 53.1304C114.641 48.393 124.454 40.5374 115.179 27.3447C117.573 33.4613 113.983 41.8566 114.162 47.7334ZM122.06 56.1887C120.026 62.2453 113.085 65.4835 108.598 74.2986C111.17 63.9244 107.341 61.1659 106.982 55.4691C103.213 65.5435 108.179 69.2014 105.367 79.6956C108.717 75.1382 121.941 72.6795 122.06 56.1887ZM106.503 44.0754C105.965 55.0493 112.128 56.9683 111.709 66.5629C114.282 59.9066 124.394 57.9877 120.624 42.0365C120.684 48.1531 115.239 51.6912 112.965 61.2858C113.444 50.4319 109.256 49.2925 106.503 44.0754ZM22.7965 19.7889C25.13 16.9705 25.9079 13.1326 29.6175 10.3741C22.0187 11.9932 15.6764 18.7095 13.9412 26.9849C16.3345 24.1665 20.463 22.5474 22.7965 19.7889ZM97.1096 20.9882C100.4 31.7822 108.119 29.3836 113.324 40.6573C112.786 36.8794 117.094 24.7062 106.982 17.2703C110.393 21.408 109.375 29.1437 111.35 34.1809C107.401 25.7256 98.9645 24.3464 97.1096 20.9882ZM70.7829 27.1648C68.8084 26.3253 66.7143 25.7856 64.6201 25.4857C64.6201 25.9655 64.6201 26.3852 64.6201 26.865C66.5946 27.1648 68.5093 27.7045 70.3043 28.4241C70.5436 28.0043 70.7231 27.5846 70.7829 27.1648ZM69.2273 13.7922L69.6461 13.4324L68.8683 13.0726L66.7741 13.0127L66.2356 13.3725L65.0389 13.2525V13.5524C65.8168 13.6123 66.5946 13.6723 67.1929 13.7922L68.2101 13.7323L69.2273 13.7922ZM65.2783 58.5274C65.2783 58.1676 64.7996 57.8078 64.1414 57.5079H64.0218C64.0218 57.8078 63.9619 59.187 63.9619 59.9066C64.7398 59.4869 65.2783 59.127 65.2783 58.5274ZM41.2851 32.202C41.3449 31.9621 41.4047 31.6623 41.4646 31.4224C41.1654 31.4824 40.9261 31.5424 40.6269 31.4824L41.2851 32.202ZM31.6519 22.5474L36.5582 27.4646C30.6347 33.6412 27.284 41.9166 27.1644 50.4918H20.2237C20.3434 39.9977 24.412 30.0432 31.6519 22.5474ZM28.6602 60.8061L28.2414 60.7462L27.8225 60.3264L25.848 60.1465L26.4464 60.986L24.6514 60.6262L25.13 60.2065L24.7112 59.7867L23.3949 60.3264L22.9162 61.1659L23.0957 63.1448L24.5915 66.7428L25.3095 67.8822L25.7284 68.0021L24.5915 65.8433L24.3522 64.7639L24.5915 64.524L24.412 63.9244L25.0702 64.0443L26.1472 65.6035L26.3865 65.7234V64.584L26.8054 64.8239L26.925 65.4235L28.002 65.7234L28.4807 65.3636L28.6602 65.4835V66.3231L29.1389 66.9227L29.7372 67.0427L31.0535 69.2015L31.8314 69.4413L32.0707 68.4219C33.4469 70.6407 35.0025 72.7395 36.8574 74.5985L31.951 79.5157C24.6514 72.1398 20.463 62.2453 20.2237 51.8711H27.1644C27.2242 54.8694 27.7627 57.9277 28.6602 60.8061ZM35.4812 51.8111C35.4812 52.4707 35.541 53.1304 35.6607 53.85L34.8231 54.0299L34.6436 54.8694L32.8485 57.1482L32.9084 60.2664L31.1134 60.8661H30.0962C29.1389 57.9277 28.6602 54.9294 28.5405 51.8111H35.4812ZM37.0369 71.4202L38.5926 72.3197L38.8917 72.5596L37.7549 73.699C37.2164 73.1593 36.7377 72.6196 36.2591 72.0199L37.0369 71.4202ZM43.3792 34.3008L48.2856 39.2181C47.2684 40.3575 46.3709 41.6168 45.7127 42.996H45.3537L44.6357 43.1759H44.3964L43.6784 43.8355L44.6357 43.7156L45.4734 43.5357L45.2939 43.7756L44.5759 44.2553H44.2169L43.1399 45.0948L42.1227 44.9749L40.6269 47.7933L40.9261 48.333L40.0884 49.2925L39.9687 50.4918H36.8574C36.9172 44.4352 39.2507 38.6784 43.3792 34.3008ZM48.4052 54.6295L48.7642 54.4496L49.6617 55.1093L49.2429 55.4091L50.2601 56.0687L50.2002 55.3492L50.7387 54.4496L51.3371 55.0493L51.9354 55.8888L50.8584 56.1887L51.3371 57.1482L52.0551 56.7284L51.9354 56.4285L52.4739 56.0687L52.7731 54.5696C53.1919 55.4691 53.7304 56.3086 54.3886 57.0282L49.4822 61.9455C47.0889 59.4269 45.5931 56.1887 45.1742 52.7106L46.1914 53.79H47.1487L48.4052 54.6295ZM41.3449 49.4124L41.4646 48.0332L42.3022 47.5535L43.7981 47.7933L44.0374 48.0332C43.9177 48.8128 43.8579 49.6523 43.7981 50.4319H42.1227L41.3449 49.4124ZM39.0712 54.2098L38.4131 55.2292H37.2762L37.2164 55.1692C37.0369 54.0898 36.9172 52.9505 36.8574 51.8711H38.9516L38.4729 53.5501L39.0712 54.2098ZM43.6784 67.7623C43.1997 67.2226 42.6612 66.6829 42.2424 66.1432L42.4817 64.4041L41.7637 62.725L41.5842 60.0865L40.7466 58.4674L40.9261 57.448L39.9089 55.529L39.0712 55.1093L39.4302 54.0898L39.0712 53.3103L39.4302 52.4108H40.3876L40.7466 51.8711H42.3621L42.6014 52.3508L42.2424 53.9699L42.0629 54.2697L42.6612 55.589L42.2424 55.8289L41.9432 55.4691L41.8236 55.589L42.1227 56.3686L42.6014 57.2681H42.8407L42.9604 56.4285L42.7211 56.1287V55.589L42.6612 54.4496L43.0202 52.4108L42.6612 51.8711H43.7981C44.0374 56.0088 45.7127 59.9066 48.5847 62.9049L43.6784 67.7623ZM85.4421 74.4785C91.3656 68.3619 94.7761 60.2664 94.9556 51.8111H101.896C101.657 62.1254 97.5285 72.0199 90.2886 79.3958L85.4421 74.4785ZM83.5275 72.5596L84.066 71.9599L83.5275 69.2614L83.1684 69.1415L83.4078 68.6618L82.271 68.302L82.0316 69.2614L81.9119 70.4608L81.6726 70.7006L79.5784 68.6018C83.9463 64.0443 86.4593 58.1076 86.6986 51.8111H93.6393C93.4 59.9666 90.169 67.7023 84.4848 73.5191L83.5275 72.5596ZM77.4244 79.0959L78.0826 77.7167L77.8433 77.1171L78.8006 76.2775V75.7978L77.9629 75.2581L78.6211 73.8789L79.6383 72.5596L78.6211 71.4802H77.8433L77.3646 70.7006C77.7834 70.3408 78.2023 69.981 78.5613 69.6212L83.4676 74.5385C81.6726 76.2775 79.6383 77.8366 77.4244 79.0959ZM76.4671 65.5435L75.8089 64.8839L76.2876 64.2242L76.9458 62.9049L76.7064 62.5452L77.1253 61.5857L77.0654 60.6862L76.8261 59.7867L76.2278 59.6068L75.9884 60.0865L75.6294 59.9666C76.1679 59.187 76.6466 58.2875 77.0654 57.448L77.6638 57.2081L78.0228 56.7284L78.2023 56.9083L78.6211 56.4285L78.2621 56.0088L78.5613 55.9488L79.0998 56.1887H80.1768L80.835 55.8289L82.5103 55.3492L82.2111 54.8094L82.0914 54.1498L82.989 54.5696L83.348 54.3897L83.1684 53.6701L82.0316 54.0898L80.835 53.85L79.8776 51.931H85.2028C84.9635 57.8677 82.5701 63.5046 78.5014 67.7623L77.7834 67.0427L78.0826 66.0832L77.5441 63.9244L76.4671 65.5435ZM73.9541 39.398L78.8605 34.4807C79.9973 35.74 81.0144 37.1193 81.9119 38.5585L81.3136 38.7384L81.3735 39.8178L83.1684 40.9571C83.6471 41.9766 84.0061 42.996 84.3053 44.0754L84.0061 44.5551L83.348 45.0349L83.1684 46.0543L82.6898 46.2942L82.3308 46.7739L81.9718 46.594H81.3136L81.6726 46.0543L81.9718 44.6751L82.4505 44.3752L81.1341 43.1159L80.1768 43.4757L79.9375 44.4352L79.3391 45.0948L78.6809 44.5551L78.4416 43.9555L78.8006 43.7156L78.9801 44.0754L79.2793 43.9555L79.1596 43.3558H78.7408V43.5957L78.4416 43.6556L76.9458 41.8566L76.4073 41.4369L76.5868 41.257L77.0654 41.0771L76.5868 40.8972C76.5868 40.8972 76.0483 41.0171 75.9884 41.0171L76.2876 41.4369H75.5098C75.0311 40.6573 74.5524 39.9977 73.9541 39.398ZM74.7319 66.2031L73.2361 65.7833L72.7574 65.9632L71.9198 65.3036L71.1419 65.0038C71.5608 64.704 71.9198 64.4041 72.2788 64.1043L73.5353 65.0038L74.4926 65.4835L74.9713 65.9632L74.7319 66.2031ZM72.0993 43.1159L72.6976 42.996V42.8761L72.0993 42.4563L72.2788 41.137L72.9968 40.3575C73.4754 40.8972 73.8943 41.4369 74.3131 42.0365L74.0738 42.8161L73.4156 42.3364L72.8771 42.4563L73.1164 42.936H73.3558L73.0566 43.6556L72.8771 43.3558L72.0993 43.1159ZM80.4161 47.9133L81.6726 47.2536L82.9291 47.0737L83.2283 46.4741L83.9463 46.0543L84.2455 45.4546L84.4848 44.4352C84.6045 44.795 84.6643 45.1548 84.784 45.5146L84.1258 47.4935V48.1531L84.9635 46.7739C85.143 47.9732 85.2626 49.2325 85.3225 50.4319H79.2194L79.0998 49.8922L79.8178 49.3525L79.9375 48.9927L80.2366 48.7528L81.0743 48.6329L81.1341 48.2731L80.4161 47.9133ZM81.7923 31.6023L83.4676 31.6623L83.8865 32.142L83.7069 32.8616L86.0405 34.3008L86.5191 34.2409L89.451 37.659L90.6476 37.2392C92.5623 41.3769 93.5795 45.9344 93.6393 50.4918H86.6986C86.6986 48.6928 86.4593 46.9538 86.0405 45.2148L86.3396 44.795L86.7585 42.5762L86.4593 40.2375L85.6216 37.539L83.7069 34.7206L84.1856 34.9605L84.425 34.7206L82.8693 33.6412L82.7496 34.001L84.3053 36.2198L85.2028 38.0188L85.8011 39.8178L85.9806 41.0171L86.2798 43.056L85.6815 43.1159C85.6815 43.1159 85.0233 41.8566 84.784 41.3169L85.0831 40.8372L84.4848 39.9977V39.2181L84.066 38.6784L83.5275 38.7384C83.348 38.3786 83.1685 38.0188 82.9291 37.7189L83.2881 37.8988L83.4078 37.7789L83.2283 37.3591L83.7069 37.1193L83.5275 36.8794L82.8693 37.1193L83.1086 36.0399L82.6898 35.8L82.3308 36.6395C81.553 35.5002 80.7153 34.4208 79.8178 33.4013L81.7923 31.6023ZM90.6476 22.6673C97.8276 30.1631 101.836 40.1176 101.956 50.4918H95.0155C94.9556 45.3347 93.759 40.2375 91.4255 35.6201L91.4853 35.5002L91.964 35.74L92.0836 35.3802L90.8271 33.2214L89.3313 31.1826L87.5961 29.7434C86.9978 29.0238 86.3995 28.3042 85.7413 27.5846L90.6476 22.6673ZM61.0899 93.1881C84.425 93.1881 103.332 74.1787 103.272 50.7917C103.272 29.0837 86.8781 10.9138 65.3381 8.69507L65.2783 8.93493C65.2184 9.3547 65.0988 9.7145 65.0389 10.0743C74.3131 10.9738 82.989 15.0515 89.6305 21.5879L84.9635 26.2653L85.143 25.4258L84.5446 25.1259L83.7668 25.1859L83.9463 24.6462L83.4078 22.7273L82.271 21.468L78.6211 19.549L78.3219 19.9088L77.6638 20.0887C78.9203 21.8877 79.5784 24.0465 79.5784 26.2053C79.5784 26.5052 79.5784 26.745 79.5784 27.0449L81.3735 29.3236L80.5358 29.5035L81.0743 30.343L79.4588 31.9621L78.8006 30.7628C78.5014 31.6023 78.0826 32.4419 77.6039 33.1615L77.9629 33.4613L72.9968 38.3786C72.6976 38.0787 72.3984 37.8389 72.0993 37.539C71.6206 37.7789 71.1419 37.9588 70.6633 38.1387L71.0821 38.4385L70.8428 38.6784L70.2444 38.9782L70.0051 39.5779L69.6461 39.2181L68.6289 39.5779L68.9281 40.0576L69.6461 39.8777L70.1248 39.9377L70.1846 39.6978L70.5436 39.5179L70.6633 39.338L71.3214 39.1581H71.8001L72.0993 39.398L70.1846 41.3769L70.0649 41.197L68.0306 41.5568L67.5519 42.0365L67.1331 42.0965L68.3896 40.8972L67.9109 40.6573L66.7143 42.2164L67.0733 42.1565V42.7561L67.4921 42.936L67.5519 43.5357L66.8339 43.4158L66.1159 43.5357L64.3209 42.6362C64.3209 42.6362 64.2013 47.4335 64.2013 49.8322C68.3896 51.2714 72.8771 53.3103 72.8771 58.7073C72.9369 60.986 71.7403 63.1448 69.8256 64.4041L69.7059 64.4641L69.5863 64.584C67.9109 65.7234 65.6971 66.3231 63.7824 66.9227L63.7226 70.7006C66.7741 72.1998 70.4239 74.4186 70.0649 80.6551C70.0051 82.2142 69.4068 82.634 68.9281 82.7539C67.1331 83.1737 65.2783 83.4735 63.4833 83.5935C63.4833 84.0732 63.4833 84.5529 63.4833 84.9727C71.3813 84.433 78.8006 81.1348 84.5446 75.6778L89.451 80.5951C73.7148 95.8267 48.7642 95.8267 32.9682 80.7151L37.8746 75.7978C43.5587 81.1348 50.9182 84.373 58.6966 84.9727C58.6966 84.5529 58.6966 84.0732 58.6966 83.5935C51.2772 82.9938 44.3366 79.9355 38.9516 74.7784L40.2081 73.4591L42.0031 73.639L42.9604 72.6196L45.4734 72.7395L45.8324 71.84L45.7127 71.4802C49.4224 74.2986 53.8501 76.0976 58.5171 76.5774C58.5171 76.0377 58.5171 75.5579 58.5171 75.1981C53.3714 74.5985 48.5847 72.4397 44.7554 68.9016L49.6617 63.9843C50.8584 65.0637 52.1747 65.9632 53.6706 66.6828C53.7902 66.2031 53.9099 65.7834 54.1492 65.3636C52.8927 64.7039 51.6961 63.9244 50.6789 63.0249L55.5852 58.1076C56.3631 58.7073 57.2606 59.247 58.1581 59.5468C58.1581 59.0671 58.1581 58.5274 58.1581 58.0476C57.5597 57.8078 57.0212 57.448 56.5426 57.0882L57.9188 55.709C57.4401 55.589 56.9614 55.4091 56.4827 55.2292L55.5254 56.1887C55.0467 55.649 54.6279 55.0493 54.3287 54.4496C53.4911 54.0899 52.6534 53.6701 51.8756 53.1304C49.0036 51.3913 47.2684 48.2131 47.3282 44.795C47.2684 42.5163 47.9266 40.2375 49.3027 38.4385L44.3964 33.5213C47.9864 30.0432 52.5936 27.8244 57.4999 27.0449C57.4999 26.5651 57.4999 26.0854 57.4999 25.6656C52.2346 26.4452 47.2684 28.8439 43.4391 32.5618L42.6014 31.7223C42.4219 32.0221 42.1826 32.4419 41.9432 32.9816L42.4817 33.5213C38.1139 38.1387 35.6607 44.2553 35.5411 50.6118H28.5405C28.6602 42.3963 31.8314 34.5407 37.5156 28.544L39.7294 30.7628C39.8491 30.7628 39.9089 30.7628 40.0286 30.7628C40.4474 30.7028 40.9261 30.5829 41.2851 30.403L38.4729 27.5846C39.9687 26.1454 41.5842 24.8261 43.3194 23.6867C43.4391 23.3269 43.4989 22.9671 43.6784 22.6673C43.9776 22.1876 44.3366 21.7078 44.7554 21.2281C42.1227 22.6673 39.7294 24.4663 37.5754 26.5651L32.669 21.6479C39.2507 15.2314 47.8069 11.2137 57.0213 10.2542C57.0213 10.0743 56.9614 9.95437 56.9614 9.95437C56.9016 9.59457 56.8418 9.29474 56.7819 8.87497C33.5067 11.2736 16.6935 32.0821 19.1467 55.3492C21.4204 76.8772 39.4901 93.2481 61.0899 93.1881ZM81.8521 19.9688L81.4333 19.3092L80.5358 18.8294L79.8178 19.3691L80.7153 19.8489L81.7325 20.5685L81.8521 19.9688ZM77.6638 39.6379L77.7236 40.1776L78.9203 39.8178L79.2793 39.0982L78.4416 38.0188L78.8605 37.3591L79.9973 38.1387L80.1768 37.9588L79.9375 37.7789L79.6981 37.2992L80.1768 37.0593L79.6981 36.4596L78.6211 36.9993L78.2621 37.659L78.0228 38.2586L78.5014 39.0382L78.3219 39.398L77.6638 39.6379ZM27.5234 70.8206L27.5832 70.5207L26.9849 69.1415L26.2669 68.8417L27.5234 70.8206ZM55.8246 44.6751C55.8246 45.8744 56.5426 46.654 57.7991 47.3736C57.7991 47.3736 57.7991 47.1937 57.7991 46.8339L57.0213 45.9943L57.4401 45.2148L57.7991 45.0948C57.7393 43.7156 57.7393 42.2164 57.7393 41.9766H57.6794C56.4827 42.6962 55.8844 43.5357 55.8246 44.6751Z" fill="#009CDE"/>
<path d="M63.6029 74.8383C65.7569 75.9177 67.7913 77.4768 68.6289 80.3552C68.9879 75.5579 66.2954 73.519 63.6628 72.0798L63.6029 74.8383Z" fill="#009CDE"/>
<path d="M78.0826 26.2056C78.0826 21.828 74.9114 17.0307 67.1929 15.3516C66.4151 15.2317 65.6373 15.1117 64.8594 15.0518C64.8594 15.7114 64.7996 17.2106 64.7996 17.2106C64.7996 17.6903 64.7398 19.4293 64.7398 19.7891C65.2184 19.8491 65.7569 19.9091 66.2356 19.969C70.7231 21.0484 72.3386 23.627 72.3386 26.1456C72.3386 30.2833 68.8084 31.8424 64.5004 33.0418L63.0644 33.4016C61.7481 33.7014 60.3719 34.0612 59.0556 34.421C58.5769 34.5409 58.0983 34.6609 57.6196 34.8408C52.8329 36.28 48.7044 38.6187 48.7044 44.5554C48.7044 50.4921 53.4312 52.6509 58.0384 54.0901C58.0384 52.411 57.9786 50.672 57.9188 48.9929C55.8246 48.0334 54.4484 46.7741 54.4484 44.6753C54.4484 42.5765 55.7647 41.3771 57.7392 40.4776C58.1581 40.2977 58.6368 40.1178 59.1753 39.9379C60.3121 39.5182 61.6284 39.2183 62.9448 38.8585L64.3808 38.4987C70.8428 36.9396 78.1424 34.9007 78.0826 26.2056Z" fill="#009CDE"/>
<path d="M54.8074 67.7622C54.8074 70.1609 56.5426 71.4202 58.2778 72.4396C58.2778 72.0199 58.2179 68.3619 58.2179 68.3019C58.2778 67.5823 58.9359 67.1026 59.5343 66.8627C60.4318 66.443 61.3891 66.0832 62.3464 65.7833C62.8849 65.6034 63.3038 65.4235 63.7824 65.3036C67.3126 64.2242 71.3813 62.9049 71.3813 58.5873C71.3813 54.2697 67.9109 52.5307 64.0816 51.2114C64.0218 52.5907 64.0218 54.5696 63.9619 55.9488C65.5774 56.5485 66.6544 57.328 66.6544 58.5873C66.6544 60.1465 65.0389 60.986 63.8423 61.4657C63.3636 61.6456 62.6456 61.8855 62.4063 61.9455C61.4489 62.2453 60.4916 62.5451 59.5343 62.9049C59.0556 63.0848 58.5769 63.2647 58.0982 63.5046C56.5426 64.3441 54.8074 65.6034 54.8074 67.7622Z" fill="#009CDE"/>
<path d="M57.2007 15.7112C55.7647 16.1909 54.3287 16.7306 52.9526 17.4502C51.4567 17.9299 49.3027 18.0499 47.0889 20.4485C46.3709 21.2881 45.7127 22.1876 45.0546 23.0871C44.3964 24.0465 44.3366 25.6057 43.8579 26.3853C43.1399 27.5846 43.3194 28.3042 43.3194 28.3042C43.1997 28.8439 42.9006 29.3836 42.5416 29.8034C41.8236 30.6429 40.7466 31.0627 39.6696 30.8828C40.6867 31.3625 42.0629 30.7029 42.0629 30.7029C41.8236 31.3625 41.6441 32.0221 41.5244 32.6818C42.6612 30.1032 43.6784 29.2037 44.0374 28.9039C44.5161 29.0238 45.5332 28.9638 47.3881 27.8844C49.4822 26.6851 52.6534 24.7062 53.5509 23.4469C54.5082 22.1876 55.7647 21.1682 57.2606 20.6284C57.2606 18.8294 57.2007 17.1504 57.2007 15.7112ZM48.3454 23.6867L47.2684 23.9266L48.5847 21.7678L50.0806 21.8278L48.3454 23.6867Z" fill="#009CDE"/>
<path d="M61.5686 67.4624C61.3891 67.5224 60.8506 67.7623 60.4916 67.8822C60.1326 68.0021 59.7138 68.182 59.7138 68.302C59.7138 68.302 60.0728 86.7717 60.0728 87.1315C60.0728 90.9094 61.9874 90.9694 61.9874 87.1315C61.9874 86.8916 62.4063 67.1626 62.4063 67.1626C62.4063 67.1626 61.8678 67.3425 61.5686 67.4624Z" fill="#009CDE"/>
<path d="M59.5343 61.346C60.1326 61.1661 60.7309 60.9262 61.2694 60.8063C61.6883 60.6864 62.0473 60.5664 62.4661 60.4465C62.4661 59.3071 62.8251 43.2361 62.8849 40.3577C61.6284 40.6575 60.3719 41.0173 59.1753 41.4371C59.2351 43.5959 59.5343 59.607 59.5343 61.346Z" fill="#009CDE"/>
<path d="M61.1498 0C55.7647 0 58.0384 8.03553 58.4572 10.6741C58.4572 10.794 58.8761 28.844 58.9958 32.9817C59.8334 32.7418 60.6113 32.5619 61.4489 32.382L63.0644 31.9622C63.1243 27.9445 63.5431 10.734 63.5431 10.6141C63.9021 7.85564 66.7143 0 61.1498 0Z" fill="#009CDE"/>
</g>
<defs>
<clipPath id="clip0_265_234">
<rect width="352" height="108" fill="white"/>
</clipPath>
</defs>
</svg>
